<svg xmlns="http://www.w3.org/2000/svg" xmlns:xlink="http://www.w3.org/1999/xlink" viewBox="0 0 50 29"><defs><filter id="a" width="147.4%" height="205.9%" x="-23.7%" y="-35.3%"><feOffset dy="2" in="SourceAlpha" result="shadowOffsetOuter1"/><feGaussianBlur in="shadowOffsetOuter1" result="shadowBlurOuter1" stdDeviation="2"/><feColorMatrix in="shadowBlurOuter1" result="shadowMatrixOuter1" values="0 0 0 0 0.130078699 0 0 0 0 0.284125761 0 0 0 0 0.533535289 0 0 0 0.307886096 0"/><feOffset dy="1" in="SourceAlpha" result="shadowOffsetOuter2"/><feGaussianBlur in="shadowOffsetOuter2" result="shadowBlurOuter2" stdDeviation="1"/><feColorMatrix in="shadowBlurOuter2" result="shadowMatrixOuter2" values="0 0 0 0 0 0 0 0 0 0 0 0 0 0 0 0 0 0 0.148126132 0"/><feMerge><feMergeNode in="shadowMatrixOuter1"/><feMergeNode in="shadowMatrixOuter2"/></feMerge></filter><filter id="d" width="103.7%" height="123.1%" x="-1.9%" y="-5.8%"><feOffset dy="1" in="SourceAlpha" result="shadowOffsetOuter1"/><feColorMatrix in="shadowOffsetOuter1" values="0 0 0 0 0 0 0 0 0 0 0 0 0 0 0 0 0 0 0.29260077 0"/></filter><radialGradient id="c" cy="0%" r="130.6%" gradientTransform="matrix(.30396 .73372 -.32824 .67945 .3 -.4)"><stop offset="0" stop-color="#fff" stop-opacity=".5"/><stop offset="1" stop-opacity=".5"/></radialGradient><rect id="b" width="38" height="17" x="6" y="3" rx="3"/><path id="e" d="M14.6 14H16c1.4 0 2.2-1 2.2-2.2s-.8-2.3-2.2-2.3h-1.3zm-2-6.4h3.3c2.8 0 4.2 2.1 4.2 4.2S18.7 16 15.9 16h-3.3zm8.5 4.2c0-2.5 1.9-4.3 4.3-4.3s4.4 1.8 4.4 4.3c0 2.4-2 4.3-4.4 4.3s-4.3-1.8-4.3-4.3zm2 0c0 1.6 1.1 2.4 2.3 2.4 1.1 0 2.3-.8 2.3-2.4 0-1.6-1.2-2.4-2.3-2.4-1.2 0-2.3.8-2.3 2.4zm9.7 0c0 1.6 1.2 2.4 2.4 2.4 1 0 1.9-.6 2.2-1.7h2a4.2 4.2 0 01-4.3 3.6c-2.4 0-4.3-1.8-4.3-4.3s2-4.3 4.3-4.3c2.2 0 4 1.4 4.3 3.6h-2a2.2 2.2 0 00-2.2-1.7c-1.2 0-2.4.8-2.4 2.4z"/></defs><g fill="none" fill-rule="evenodd"><use fill="#000" filter="url(#a)" xlink:href="#b"/><use fill="#2d579b" xlink:href="#b"/><use fill="url(#c)" fill-opacity=".3" xlink:href="#b"/><use fill="#000" filter="url(#d)" xlink:href="#e"/><use fill="#fff" xlink:href="#e"/></g></svg>