<svg xmlns="http://www.w3.org/2000/svg" xmlns:xlink="http://www.w3.org/1999/xlink" viewBox="0 0 50 29"><defs><filter id="a" width="147.4%" height="205.9%" x="-23.7%" y="-35.3%"><feOffset dy="2" in="SourceAlpha" result="shadowOffsetOuter1"/><feGaussianBlur in="shadowOffsetOuter1" result="shadowBlurOuter1" stdDeviation="2"/><feColorMatrix in="shadowBlurOuter1" result="shadowMatrixOuter1" values="0 0 0 0 0.89 0 0 0 0 0.047 0 0 0 0 0.235 0 0 0 0.198 0"/><feOffset dy="1" in="SourceAlpha" result="shadowOffsetOuter2"/><feGaussianBlur in="shadowOffsetOuter2" result="shadowBlurOuter2" stdDeviation="1"/><feColorMatrix in="shadowBlurOuter2" result="shadowMatrixOuter2" values="0 0 0 0 0 0 0 0 0 0 0 0 0 0 0 0 0 0 0.148126132 0"/><feMerge><feMergeNode in="shadowMatrixOuter1"/><feMergeNode in="shadowMatrixOuter2"/></feMerge></filter><filter id="c" width="104.6%" height="123.6%" x="-2.3%" y="-5.9%"><feOffset dy="1" in="SourceAlpha" result="shadowOffsetOuter1"/><feColorMatrix in="shadowOffsetOuter1" values="0 0 0 0 0 0 0 0 0 0 0 0 0 0 0 0 0 0 0.29 0"/></filter><rect id="b" width="38" height="17" x="6" y="3" rx="3"/><path id="d" d="M13.6 7.5H17c2 0 3 1.6 3 3 0 1.5-1 3-3 3h-1.3V16h-2.1zm2 4H17c.6 0 1-.4 1-1 0-.4-.4-1-1-1h-1.3zm7.7 2.5h1.3c1.4 0 2.2-1 2.2-2.2s-.8-2.3-2.2-2.3h-1.3zm-2-6.4h3.3c2.8 0 4.2 2.1 4.2 4.2S27.4 16 24.6 16h-3.3zM32 13v3h-2V7.5h5.4v2H32V11h3.2V13z"/></defs><g fill="none" fill-rule="evenodd"><use fill="#000" filter="url(#a)" xlink:href="#b"/><use fill="#e60d3e" xlink:href="#b"/><use xlink:href="#b"/><use fill="#000" filter="url(#c)" xlink:href="#d"/><use fill="#fff" xlink:href="#d"/></g></svg>