<svg xmlns="http://www.w3.org/2000/svg" xmlns:xlink="http://www.w3.org/1999/xlink" viewBox="0 0 314 322"><defs><filter id="a" width="197.1%" height="151.5%" x="-51.5%" y="-12.9%"><feOffset dx="-1" dy="9" in="SourceAlpha" result="shadowOffsetOuter1"/><feGaussianBlur in="shadowOffsetOuter1" result="shadowBlurOuter1" stdDeviation="4"/><feColorMatrix in="shadowBlurOuter1" result="shadowMatrixOuter1" values="0 0 0 0 0 0 0 0 0 0 0 0 0 0 0 0 0 0 0.5 0"/><feMerge><feMergeNode in="shadowMatrixOuter1"/><feMergeNode in="SourceGraphic"/></feMerge></filter><filter id="b" width="207%" height="208.4%" x="-53.5%" y="-27.1%"><feOffset dy="19" in="SourceAlpha" result="shadowOffsetOuter1"/><feGaussianBlur in="shadowOffsetOuter1" result="shadowBlurOuter1" stdDeviation="9"/><feColorMatrix in="shadowBlurOuter1" values="0 0 0 0 0 0 0 0 0 0 0 0 0 0 0 0 0 0 0.5 0"/></filter><filter id="e" width="154.2%" height="155.7%" x="-27.1%" y="-.7%"><feOffset dy="1" in="SourceAlpha" result="shadowOffsetInner1"/><feComposite in="shadowOffsetInner1" in2="SourceAlpha" k2="-1" k3="1" operator="arithmetic" result="shadowInnerInner1"/><feColorMatrix in="shadowInnerInner1" values="0 0 0 0 1 0 0 0 0 1 0 0 0 0 1 0 0 0 0.188320879 0"/></filter><filter id="g" width="282.6%" height="282.6%" x="-91.3%" y="-69.6%"><feOffset dy="5" in="SourceAlpha" result="shadowOffsetOuter1"/><feGaussianBlur in="shadowOffsetOuter1" result="shadowBlurOuter1" stdDeviation="4.5"/><feColorMatrix in="shadowBlurOuter1" result="shadowMatrixOuter1" values="0 0 0 0 0 0 0 0 0 0 0 0 0 0 0 0 0 0 0.195906929 0"/><feMerge><feMergeNode in="shadowMatrixOuter1"/><feMergeNode in="SourceGraphic"/></feMerge></filter><linearGradient id="d" x1="50%" x2="50%" y1="0%" y2="100%"><stop offset="0" stop-color="#0ab5fc"/><stop offset="1" stop-color="#0a7ccf"/></linearGradient><linearGradient id="f" x1="31.9%" x2="100%" y1="240.8%" y2="-103.1%"><stop offset="0" stop-color="#fbb21c"/><stop offset="1" stop-color="#fde645"/></linearGradient><path id="c" d="M257 68.2A34.1 34.1 0 11257 0a34.1 34.1 0 010 68.2zm0-18.2a16 16 0 100-32 16 16 0 000 32z"/></defs><g fill="none" fill-rule="evenodd" transform="translate(4)"><g fill="#474d59" filter="url(#a)" transform="translate(141 139)"><path d="M33.2.9a32.3 32.3 0 000 64.6z"/></g><use fill="#000" filter="url(#b)" xlink:href="#c"/><use fill="url(#d)" xlink:href="#c"/><use fill="#000" filter="url(#e)" xlink:href="#c"/><path stroke="url(#f)" stroke-width="7" d="M0 10.9C7.2 10.9 12 0 17.6 0c6 0 10.9 10.9 17 10.9 6 0 10.9-10.9 16.8-10.9" transform="translate(0 221.4)"/><g stroke="#42474d" stroke-width="10" filter="url(#g)" transform="translate(219.2 279.6)"><path d="M22.3.2L0 22.5M.2.2l22.3 22.3"/></g></g></svg>