<svg xmlns="http://www.w3.org/2000/svg" xmlns:xlink="http://www.w3.org/1999/xlink" viewBox="0 0 254 162"><defs><filter id="p" width="125%" height="122.2%" x="-6.2%" y="-5.6%"><feOffset dx="1" dy="1" in="SourceAlpha" result="shadowOffsetOuter1"/><feColorMatrix in="shadowOffsetOuter1" values="0 0 0 0 1 0 0 0 0 1 0 0 0 0 1 0 0 0 0.141983696 0"/></filter><filter id="x" width="100.7%" height="133.3%" x="-.3%" y="-8.3%"><feOffset dy="1" in="SourceAlpha" result="shadowOffsetOuter1"/><feColorMatrix in="shadowOffsetOuter1" values="0 0 0 0 0 0 0 0 0 0 0 0 0 0 0 0 0 0 0.193925498 0"/></filter><filter id="L" width="111.3%" height="112.5%" x="-5.7%" y="-6.2%"><feOffset dx="6" dy="1" in="SourceAlpha" result="shadowOffsetInner1"/><feComposite in="shadowOffsetInner1" in2="SourceAlpha" k2="-1" k3="1" operator="arithmetic" result="shadowInnerInner1"/><feColorMatrix in="shadowInnerInner1" values="0 0 0 0 0 0 0 0 0 0 0 0 0 0 0 0 0 0 0.106827446 0"/></filter><filter id="J" width="101.9%" height="104.2%" x="-.9%" y="-1%"><feOffset dy="1" in="SourceAlpha" result="shadowOffsetOuter1"/><feColorMatrix in="shadowOffsetOuter1" result="shadowMatrixOuter1" values="0 0 0 0 1 0 0 0 0 1 0 0 0 0 1 0 0 0 0.581238678 0"/><feMerge><feMergeNode in="shadowMatrixOuter1"/><feMergeNode in="SourceGraphic"/></feMerge></filter><filter id="I" width="109.1%" height="102.9%" x="-4.5%" y="-1.5%"><feOffset dx="1" dy="1" in="SourceAlpha" result="shadowOffsetInner1"/><feComposite in="shadowOffsetInner1" in2="SourceAlpha" k2="-1" k3="1" operator="arithmetic" result="shadowInnerInner1"/><feColorMatrix in="shadowInnerInner1" values="0 0 0 0 0 0 0 0 0 0 0 0 0 0 0 0 0 0 0.263473732 0"/></filter><filter id="l" width="125%" height="122.2%" x="-6.2%" y="-5.6%"><feOffset dx="1" dy="1" in="SourceAlpha" result="shadowOffsetOuter1"/><feColorMatrix in="shadowOffsetOuter1" values="0 0 0 0 1 0 0 0 0 1 0 0 0 0 1 0 0 0 0.141983696 0"/></filter><filter id="n" width="162.5%" height="155.6%" x="-25%" y="-22.2%"><feGaussianBlur in="SourceAlpha" result="shadowBlurInner1" stdDeviation="1.5"/><feOffset dy="1" in="shadowBlurInner1" result="shadowOffsetInner1"/><feComposite in="shadowOffsetInner1" in2="SourceAlpha" k2="-1" k3="1" operator="arithmetic" result="shadowInnerInner1"/><feColorMatrix in="shadowInnerInner1" values="0 0 0 0 0 0 0 0 0 0 0 0 0 0 0 0 0 0 1 0"/></filter><filter id="G" width="111.1%" height="105.9%" x="-5.6%" y="-2.9%"><feOffset dx="1" dy="1" in="SourceAlpha" result="shadowOffsetInner1"/><feComposite in="shadowOffsetInner1" in2="SourceAlpha" k2="-1" k3="1" operator="arithmetic" result="shadowInnerInner1"/><feColorMatrix in="shadowInnerInner1" values="0 0 0 0 0 0 0 0 0 0 0 0 0 0 0 0 0 0 0.263473732 0"/></filter><filter id="f" width="200.5%" height="303.3%" x="-52.5%" y="-85.8%"><feOffset dx="-4" dy="2" in="SourceAlpha" result="shadowOffsetOuter1"/><feGaussianBlur in="shadowOffsetOuter1" result="shadowBlurOuter1" stdDeviation="8.5"/><feComposite in="shadowBlurOuter1" in2="SourceAlpha" operator="out" result="shadowBlurOuter1"/><feColorMatrix in="shadowBlurOuter1" result="shadowMatrixOuter1" values="0 0 0 0 0.960784314 0 0 0 0 0.741176471 0 0 0 0 0.0941176471 0 0 0 0.301375679 0"/><feOffset dy="12" in="SourceAlpha" result="shadowOffsetOuter2"/><feGaussianBlur in="shadowOffsetOuter2" result="shadowBlurOuter2" stdDeviation="19.5"/><feComposite in="shadowBlurOuter2" in2="SourceAlpha" operator="out" result="shadowBlurOuter2"/><feColorMatrix in="shadowBlurOuter2" result="shadowMatrixOuter2" values="0 0 0 0 0 0 0 0 0 0 0 0 0 0 0 0 0 0 0.289656929 0"/><feMerge><feMergeNode in="shadowMatrixOuter1"/><feMergeNode in="shadowMatrixOuter2"/></feMerge></filter><filter id="r" width="162.5%" height="155.6%" x="-25%" y="-22.2%"><feGaussianBlur in="SourceAlpha" result="shadowBlurInner1" stdDeviation="1.5"/><feOffset dy="1" in="shadowBlurInner1" result="shadowOffsetInner1"/><feComposite in="shadowOffsetInner1" in2="SourceAlpha" k2="-1" k3="1" operator="arithmetic" result="shadowInnerInner1"/><feColorMatrix in="shadowInnerInner1" values="0 0 0 0 0 0 0 0 0 0 0 0 0 0 0 0 0 0 1 0"/></filter><filter id="E" width="106.2%" height="102.9%" x="-3.1%" y="-1.4%"><feOffset dx="1" dy="1" in="SourceAlpha" result="shadowOffsetInner1"/><feComposite in="shadowOffsetInner1" in2="SourceAlpha" k2="-1" k3="1" operator="arithmetic" result="shadowInnerInner1"/><feColorMatrix in="shadowInnerInner1" values="0 0 0 0 0 0 0 0 0 0 0 0 0 0 0 0 0 0 0.263473732 0"/></filter><filter id="u" width="106.1%" height="101.1%" x="-4.5%" y="-.5%"><feOffset dx="-1" in="SourceAlpha" result="shadowOffsetOuter1"/><feColorMatrix in="shadowOffsetOuter1" values="0 0 0 0 0 0 0 0 0 0 0 0 0 0 0 0 0 0 0.125820879 0"/></filter><filter id="w" width="106.1%" height="101.1%" x="-4.5%" y="-.5%"><feOffset dx="1" in="SourceAlpha" result="shadowOffsetInner1"/><feComposite in="shadowOffsetInner1" in2="SourceAlpha" k2="-1" k3="1" operator="arithmetic" result="shadowInnerInner1"/><feColorMatrix in="shadowInnerInner1" values="0 0 0 0 1 0 0 0 0 1 0 0 0 0 1 0 0 0 0.560122283 0"/></filter><filter id="d" width="171.9%" height="245.4%" x="-38.2%" y="-56.8%"><feGaussianBlur in="SourceGraphic" stdDeviation="2.7"/></filter><filter id="z" width="100.7%" height="105.6%" x="-.3%" y="-1.4%"><feOffset dy="1" in="SourceAlpha" result="shadowOffsetOuter1"/><feColorMatrix in="shadowOffsetOuter1" result="shadowMatrixOuter1" values="0 0 0 0 1 0 0 0 0 1 0 0 0 0 1 0 0 0 0.5 0"/><feMerge><feMergeNode in="shadowMatrixOuter1"/><feMergeNode in="SourceGraphic"/></feMerge></filter><filter id="C" width="109.1%" height="105.9%" x="-4.5%" y="-2.9%"><feOffset dx="1" dy="1" in="SourceAlpha" result="shadowOffsetInner1"/><feComposite in="shadowOffsetInner1" in2="SourceAlpha" k2="-1" k3="1" operator="arithmetic" result="shadowInnerInner1"/><feColorMatrix in="shadowInnerInner1" values="0 0 0 0 0 0 0 0 0 0 0 0 0 0 0 0 0 0 0.263473732 0"/></filter><path id="b" d="M0 56.1l24.5-10.8L39.7 0H178v70.8c0 9.3-6 10.2-6 10.2h-52.8V70.8s-2.9-8-11.4-7.7c-8.5-.2-12 7.7-12 7.7s.2 5 0 9.6c-12.5-.3-44.6.6-63.1.6V70.8s-3.6-8-11.5-7.7C13.1 63 11 70.8 11 70.8s.1 6.2 0 10.2c-1.5-.2-2.1-.9-3.8-.6-4.8-.3-5-9.6-5-9.6s.5-11.4 0-12.1C2.7 57.5 0 56 0 56z"/><path id="c" d="M0 0h53v43a5 5 0 01-5 5H5a5 5 0 01-5-5z"/><path id="H" d="M11 2v34H0s.2-2.5 0-3.8L11 2z"/><path id="P" d="M0 36h53v12H0z"/><path id="D" d="M13 2c0-1.1.9-2 2-2h12a2 2 0 012 2v31a2 2 0 01-2 2H15a2 2 0 01-2-2z"/><path id="N" d="M0-6h53V9H0z"/><path id="g" d="M75.5 124c-1.2 4-4.6 7-8.5 7-.7 0-1.4 0-2-.3-.6.2-1.3.3-2 .3-5 0-9-4.7-9-10.5s4-10.5 9-10.5c.7 0 1.4 0 2 .3.6-.2 1.3-.3 2-.3 2.4 0 4.5 1 6.1 2.8-1.2-2.1-4.7-6.9-10.9-6.7-8.1-.2-10.3 7.7-10.3 7.7s.1 6.2 0 10.2c-1.5-.2-2.1-.9-3.8-.6-4.8-.3-5-9.6-5-9.6s.5-11.4 0-12.1c.5-1.2-2.1-2.6-2.1-2.6l24.5-10.8L80.7 43H219v70.8c0 9.3-6 10.2-6 10.2h-21.5c-1.2 4-4.6 7-8.5 7-.7 0-1.4 0-2-.3-.6.2-1.3.3-2 .3-4 0-7.3-3-8.5-7h-8c-1.2 4-4.6 7-8.5 7-.7 0-1.4 0-2-.3-.6.2-1.3.3-2 .3-5 0-9-4.7-9-10.5s4-10.5 9-10.5c.7 0 1.4 0 2 .3.6-.2 1.3-.3 2-.3 2 0 3.8.8 5.3 2-1.4-2.3-4.6-6-10.5-5.9-8.5-.2-12 7.7-12 7.7s.2 5 0 9.6c-6.4-.2-18 0-30.2.2-1.1 4.3-4.6 7.4-8.6 7.4-.7 0-1.4 0-2-.3-.6.2-1.3.3-2 .3-4 0-7.3-3-8.5-7h-10z"/><path id="F" d="M137 2c0-1.1.9-2 2-2h5a2 2 0 012 2v13a2 2 0 01-2 2h-5a2 2 0 01-2-2z"/><path id="A" d="M124 2c0-1.1.9-2 2-2h7a2 2 0 012 2v13a2 2 0 01-2 2h-7a2 2 0 01-2-2z"/><radialGradient id="K" cx="84.6%" cy="50%" r="100%" gradientTransform="matrix(0 1 -.90566 0 1.3 -.3)" xlink:href="#a"/><radialGradient id="s" cx="35.5%" cy="-45.8%" r="128.8%" gradientTransform="matrix(.2494 .83644 -.38063 .54805 0 -.5)" xlink:href="#a"/><radialGradient id="j" cx="81.7%" cy="30.1%" r="100%" gradientTransform="matrix(0 1 -.16154 0 .9 -.5)" xlink:href="#a"/><radialGradient id="O" cx="100%" cy="100%" r="138.7%" gradientTransform="matrix(-.19609 -.72109 .20408 -.69285 1 2.4)" xlink:href="#a"/><radialGradient id="i" cx="17.3%" cy="19.6%" r="100%" gradientTransform="matrix(0 1 -.16154 0 .2 0)" xlink:href="#a"/><ellipse id="q" cx="9" cy="10.5" rx="4" ry="4.5"/><ellipse id="o" cx="9" cy="10.5" rx="9" ry="10.5"/><ellipse id="m" cx="9" cy="10.5" rx="4" ry="4.5"/><ellipse id="k" cx="9" cy="10.5" rx="9" ry="10.5"/><linearGradient id="B" x1="0%" x2="100%" y1="100%" y2="30.7%" xlink:href="#a"/><linearGradient id="Q" x1="50%" x2="62.6%" y1="0%" y2="192.2%" xlink:href="#a"/><linearGradient id="a"><stop offset="0" stop-color="#fff" stop-opacity=".5"/><stop offset="1" stop-opacity=".5"/></linearGradient><rect id="y" width="148" height="6" x="27" y="15" rx="3"/><rect id="h" width="130" height="21" x="8" y="59" rx="1"/><rect id="v" width="33" height="92" x="149" y="-4" rx="4"/><mask id="e" fill="#fff"><path fill="none" d="M0 0h211v180H0z"/></mask><mask id="t" fill="#fff"><use fill="none" xlink:href="#b"/></mask><mask id="M" fill="#fff"><use fill="none" xlink:href="#c"/></mask></defs><g fill="none" fill-rule="evenodd"><g filter="url(#d)" mask="url(#e)" transform="matrix(-1 0 0 1 254 -18)"><use fill="#000" filter="url(#f)" xlink:href="#g"/><use fill="#271515" fill-opacity=".4" xlink:href="#g"/></g><g transform="matrix(-1 0 0 1 209 21)"><use fill="#1b1b1b" xlink:href="#h"/><use fill="url(#i)" fill-opacity=".3" xlink:href="#h"/><use fill="url(#j)" fill-opacity=".3" xlink:href="#h"/><ellipse cx="26" cy="77.5" fill="#271515" rx="9" ry="10.5"/><g transform="translate(13 67)"><use fill="#4f4646" xlink:href="#k"/><use xlink:href="#k"/></g><g fill="#000" transform="translate(13 67)"><use filter="url(#l)" xlink:href="#m"/><use xlink:href="#m"/><use filter="url(#n)" xlink:href="#m"/></g><ellipse cx="55" cy="77.5" fill="#271515" rx="9" ry="10.5"/><ellipse cx="51" cy="77.5" fill="#3c2e2e" rx="9" ry="10.5"/><ellipse cx="111" cy="77.5" fill="#271515" rx="9" ry="10.5"/><g transform="translate(98 67)"><use fill="#4f4646" xlink:href="#o"/><use xlink:href="#o"/></g><g fill="#000" transform="translate(98 67)"><use filter="url(#p)" xlink:href="#q"/><use xlink:href="#q"/><use filter="url(#r)" xlink:href="#q"/></g><ellipse cx="142" cy="77.5" fill="#271515" rx="9" ry="10.5"/><ellipse cx="138" cy="77.5" fill="#3c2e2e" rx="9" ry="10.5"/><use fill="#f8d029" xlink:href="#b"/><use fill="url(#s)" xlink:href="#b"/><path fill="#a77e1c" d="M2 72h178v9H2z" mask="url(#t)"/><g mask="url(#t)"><use fill="#000" filter="url(#u)" xlink:href="#v"/><use fill="#d3980e" xlink:href="#v"/><use fill="#000" filter="url(#w)" xlink:href="#v"/></g></g><g transform="matrix(-1 0 0 1 202 0)"><use fill="#000" filter="url(#x)" xlink:href="#y"/><use fill="#fff" xlink:href="#y"/></g><g filter="url(#z)" transform="matrix(-1 0 0 1 180 30)"><use fill="#363636" xlink:href="#A"/><use fill="url(#B)" fill-opacity=".4" xlink:href="#A"/><use fill="#000" filter="url(#C)" xlink:href="#A"/><use fill="#363636" xlink:href="#D"/><use fill="url(#B)" fill-opacity=".4" xlink:href="#D"/><use fill="#000" filter="url(#E)" xlink:href="#D"/><use fill="#363636" xlink:href="#F"/><use fill="url(#B)" fill-opacity=".4" xlink:href="#F"/><use fill="#000" filter="url(#G)" xlink:href="#F"/><use fill="#363636" xlink:href="#H"/><use fill="url(#B)" fill-opacity=".4" xlink:href="#H"/><use fill="#000" filter="url(#I)" xlink:href="#H"/></g><g transform="matrix(-1 0 0 1 146 26)"><g filter="url(#J)" transform="translate(13 1)"><use fill="#343434" xlink:href="#c"/><use fill="url(#K)" fill-opacity=".1" xlink:href="#c"/><use fill="#000" filter="url(#L)" xlink:href="#c"/><g mask="url(#M)"><use fill="#ac8629" xlink:href="#N"/><use fill="url(#O)" xlink:href="#N"/></g><g mask="url(#M)"><use fill="#ffecaf" xlink:href="#P"/><use fill="url(#Q)" xlink:href="#P"/></g></g><g transform="translate(42)"><circle cx="5.5" cy="14.5" r="5.5" fill="#ccc"/><path fill="#f1f1f1" d="M25 0L11.2 14H0L13.2 0z"/></g><g transform="translate(33)"><circle cx="5.5" cy="14.5" r="5.5" fill="#ae4f18"/><path fill="#eb5500" d="M25 0L11.2 14H0L13.2 0z"/></g><g transform="translate(21)"><ellipse cx="5.5" cy="15" fill="#ccc" rx="5.5" ry="6"/><path fill="#f1f1f1" d="M25 0L11.2 14H0L13.2 0z"/></g><g transform="translate(11)"><circle cx="5.5" cy="14.5" r="5.5" fill="#ae4f18"/><path fill="#eb5500" d="M25 0L11.2 14H0L13.2 0z"/></g><ellipse cx="6.5" cy="16.5" fill="#e7e7e7" rx="4.5" ry="5.5"/><path fill="#f1f1f1" d="M25 0L11.2 14H0L13.2 0z"/></g></g></svg>