<svg xmlns="http://www.w3.org/2000/svg" xmlns:xlink="http://www.w3.org/1999/xlink" viewBox="0 0 175 180"><defs><linearGradient id="e" x1="64%" x2="85.1%" y1="50%" y2="94.6%"><stop offset="0" stop-color="#5354ad" stop-opacity="0"/><stop offset="1" stop-color="#4e4fa7"/></linearGradient><linearGradient id="f" x1="-88%" x2="100%" y1="57%" y2="57%"><stop offset="0"/><stop offset="1" stop-opacity="0"/></linearGradient><filter id="b" width="194%" height="181.7%" x="-39%" y="-32.2%"><feOffset dx="8" dy="8" in="SourceAlpha" result="shadowOffsetOuter1"/><feGaussianBlur in="shadowOffsetOuter1" result="shadowBlurOuter1" stdDeviation="13"/><feColorMatrix in="shadowBlurOuter1" result="shadowMatrixOuter1" values="0 0 0 0 0 0 0 0 0 0 0 0 0 0 0 0 0 0 0.25891644 0"/><feOffset dy="2" in="SourceAlpha" result="shadowOffsetOuter2"/><feGaussianBlur in="shadowOffsetOuter2" result="shadowBlurOuter2" stdDeviation="2"/><feColorMatrix in="shadowBlurOuter2" result="shadowMatrixOuter2" values="0 0 0 0 0 0 0 0 0 0.00971926965 0 0 0 0 0.437367134 0 0 0 1 0"/><feMerge><feMergeNode in="shadowMatrixOuter1"/><feMergeNode in="shadowMatrixOuter2"/></feMerge></filter><filter id="c" width="181.7%" height="181.7%" x="-33.9%" y="-32.2%"><feOffset dx="8" dy="8" in="SourceAlpha" result="shadowOffsetOuter1"/><feGaussianBlur in="shadowOffsetOuter1" result="shadowBlurOuter1" stdDeviation="13"/><feColorMatrix in="shadowBlurOuter1" result="shadowMatrixOuter1" values="0 0 0 0 0 0 0 0 0 0 0 0 0 0 0 0 0 0 0.25891644 0"/><feOffset dy="2" in="SourceAlpha" result="shadowOffsetOuter2"/><feGaussianBlur in="shadowOffsetOuter2" result="shadowBlurOuter2" stdDeviation="2"/><feColorMatrix in="shadowBlurOuter2" result="shadowMatrixOuter2" values="0 0 0 0 0 0 0 0 0 0 0 0 0 0 0 0 0 0 0.5 0"/><feMerge><feMergeNode in="shadowMatrixOuter1"/><feMergeNode in="shadowMatrixOuter2"/></feMerge></filter><radialGradient id="d" cx="50%" cy="0%" r="175.1%"><stop offset="0" stop-color="#fff" stop-opacity=".5"/><stop offset="1" stop-color="#4749a2"/></radialGradient><path id="a" d="M69 115L0 103.3V11.8L69 0zM19.2 36.2v6.5l11.5-.4v30.1l7.6.4V42l11.5-.4v-7.1zM92 83.4a9.1 9.1 0 01-4.6 8.1c-1.3.9-2.8 1.5-4.5 2-1.6.4-3.3.6-5 .6-2 0-3.7-.3-5-.8V46H92zm23-29.7V76c0 2.8-1.4 5-4.1 6.4A13 13 0 01107 84c-1.5.3-2.8.5-4.1.5h-7.2V53.6zM79 19.2a11.5 11.5 0 0111.6 11.5A11.5 11.5 0 0179 42.2c-.4 0-1 0-1.6-.2-.7-.1-1.3-.3-2-.6-1.8-.6-2.7-1.2-2.7-1.9V21.8c0-.6 1-1.3 2.7-1.9a16 16 0 013.5-.7zm26.4 7.6a9.3 9.3 0 016.8 2.8 9.6 9.6 0 010 13.6 9.6 9.6 0 01-13.6 0 9.6 9.6 0 010-13.6 9.6 9.6 0 016.8-2.8z"/><mask id="g" fill="#fff"><use fill="none" xlink:href="#a"/></mask></defs><g fill="none" fill-rule="evenodd" transform="translate(22 20)"><path fill="#000" d="M70 120l-60-11.7V16.8L70 5zM27 41.7v6.4l10.1-.4v29.9l6.8.4V47.5L54 47v-7zm63 46.6c0 1.8-.4 3.4-1 4.8s-1.8 2.5-3 3.3c-1.3.9-2.6 1.5-4 2-1.5.4-3 .6-4.5.6-1.8 0-3.3-.3-4.5-.8V51h17zM110 59v22.6c0 2.8-1.2 5-3.7 6.5-1 .7-2 1.1-3.3 1.4-1.3.3-2.5.5-3.7.5H93V59zM78.2 25c1.3 0 2.6.3 3.8.9 1.2.5 2.2 1.4 3.1 2.5a12.8 12.8 0 012.9 8.1c0 1.6-.2 3-.7 4.4-.5 1.4-1.2 2.7-2.1 3.7-1 1.1-2 2-3.2 2.5-1.2.6-2.4.9-3.7.9-.3 0-.8 0-1.3-.2l-1.7-.5c-1.5-.6-2.3-1.3-2.3-2V27.7c0-.6.7-1.2 2.2-1.8a12 12 0 013-.8zm23.3 6c1.1 0 2.2.3 3.3.8 1 .5 2 1.2 2.7 2.1a11.3 11.3 0 010 14.1c-.8 1-1.7 1.7-2.7 2.2a7.2 7.2 0 01-6.6 0c-1-.5-2-1.2-2.7-2.1s-1.4-2-1.8-3.3-.7-2.5-.7-3.8.2-2.6.7-3.8 1-2.3 1.8-3.3c.8-.9 1.7-1.6 2.7-2.1s2.2-.8 3.3-.8z" filter="url(#b)" opacity=".3"/><use fill="#000" filter="url(#c)" xlink:href="#a"/><use fill="#fff" xlink:href="#a"/><use fill="url(#d)" fill-opacity=".5" xlink:href="#a"/><use fill="url(#e)" fill-opacity=".1" xlink:href="#a"/><path fill="url(#f)" fill-rule="nonzero" d="M71 0h11v116H71z" mask="url(#g)" opacity=".4"/></g></svg>