<svg xmlns="http://www.w3.org/2000/svg" xmlns:xlink="http://www.w3.org/1999/xlink" viewBox="0 0 308 424"><defs><filter id="g" width="102.7%" height="101%" x="-1.4%" y="-.2%"><feOffset dy="1" in="SourceAlpha" result="shadowOffsetOuter1"/><feColorMatrix in="shadowOffsetOuter1" values="0 0 0 0 1 0 0 0 0 1 0 0 0 0 1 0 0 0 0.193500906 0"/></filter><filter id="c" width="139.3%" height="128.5%" x="-19.6%" y="-14.3%"><feGaussianBlur in="SourceAlpha" result="shadowBlurInner1" stdDeviation="35"/><feOffset dy="-51" in="shadowBlurInner1" result="shadowOffsetInner1"/><feComposite in="shadowOffsetInner1" in2="SourceAlpha" k2="-1" k3="1" operator="arithmetic" result="shadowInnerInner1"/><feColorMatrix in="shadowInnerInner1" values="0 0 0 0 0 0 0 0 0 0 0 0 0 0 0 0 0 0 0.5 0"/></filter><filter id="e" width="102.7%" height="100.9%" x="-1.4%" y="-.2%"><feOffset dy="1" in="SourceAlpha" result="shadowOffsetOuter1"/><feColorMatrix in="shadowOffsetOuter1" values="0 0 0 0 1 0 0 0 0 1 0 0 0 0 1 0 0 0 0.193500906 0"/></filter><filter id="i" width="102.7%" height="101%" x="-1.4%" y="-.2%"><feOffset dy="1" in="SourceAlpha" result="shadowOffsetOuter1"/><feColorMatrix in="shadowOffsetOuter1" values="0 0 0 0 1 0 0 0 0 1 0 0 0 0 1 0 0 0 0.193500906 0"/></filter><filter id="k" width="102.7%" height="101%" x="-1.4%" y="-.2%"><feOffset dy="1" in="SourceAlpha" result="shadowOffsetOuter1"/><feColorMatrix in="shadowOffsetOuter1" values="0 0 0 0 1 0 0 0 0 1 0 0 0 0 1 0 0 0 0.193500906 0"/></filter><path id="f" d="M57 0h2v2h-2zm0 29h2v2h-2zm29-14h2v2h-2zm0 29h2v2h-2zM57 58h2v2h-2zm0 30h2v2h-2zm29-15h2v2h-2zm0 29h2v2h-2zm-29 15h2v2h-2zm0 29h2v2h-2zm29-15h2v2h-2zm0 30h2v2h-2zm-29 14h2v2h-2zm0 30h2v2h-2zm29-15h2v2h-2zm0 29h2v2h-2zM59 0h2v2h-2zm0 29h2v2h-2zm29-14h2v2h-2zm0 29h2v2h-2zM59 58h2v2h-2zm0 30h2v2h-2zm29-15h2v2h-2zm0 29h2v2h-2zm-29 15h2v2h-2zm0 29h2v2h-2zm29-15h2v2h-2zm0 30h2v2h-2zm-29 14h2v2h-2zm0 30h2v2h-2zm29-15h2v2h-2zm0 29h2v2h-2zM63 0h2v2h-2zm0 29h2v2h-2zm29-14h2v2h-2zm0 29h2v2h-2zM63 58h2v2h-2zm0 30h2v2h-2zm29-15h2v2h-2zm0 29h2v2h-2zm-29 15h2v2h-2zm0 29h2v2h-2zm29-15h2v2h-2zm0 30h2v2h-2zm-29 14h2v2h-2zm0 30h2v2h-2zm29-15h2v2h-2zm0 29h2v2h-2z"/><path id="h" d="M114 29h2v2h-2zm29-14h2v2h-2zm0 29h2v2h-2zm-29 14h2v2h-2zm0 30h2v2h-2zm29-15h2v2h-2zm0 29h2v2h-2zm-29 15h2v2h-2zm0 29h2v2h-2zm29-15h2v2h-2zm0 30h2v2h-2zm-29 14h2v2h-2zm0 30h2v2h-2zm29-15h2v2h-2zm0 29h2v2h-2zM116 29h2v2h-2zm29-14h2v2h-2zm0 29h2v2h-2zm-29 14h2v2h-2zm0 30h2v2h-2zm29-15h2v2h-2zm0 29h2v2h-2zm-29 15h2v2h-2zm0 29h2v2h-2zm29-15h2v2h-2zm0 30h2v2h-2zm-29 14h2v2h-2zm0 30h2v2h-2zm29-15h2v2h-2zm0 29h2v2h-2zM120 29h2v2h-2zm29-14h2v2h-2zm0 29h2v2h-2zm-29 14h2v2h-2zm0 30h2v2h-2zm29-15h2v2h-2zm0 29h2v2h-2zm-29 15h2v2h-2zm0 29h2v2h-2zm29-15h2v2h-2zm0 30h2v2h-2zm-29 14h2v2h-2zm0 30h2v2h-2zm29-15h2v2h-2zm0 29h2v2h-2z"/><path id="a" d="M0 0h308v424H0z"/><path id="j" d="M170 67h2v2h-2zm29-14h2v2h-2zm0 29h2v2h-2zm-29 14h2v2h-2zm0 30h2v2h-2zm29-15h2v2h-2zm0 29h2v2h-2zm-29 15h2v2h-2zm0 29h2v2h-2zm29-15h2v2h-2zm0 30h2v2h-2zm-29 14h2v2h-2zm0 30h2v2h-2zm29-15h2v2h-2zm0 29h2v2h-2zM172 67h2v2h-2zm29-14h2v2h-2zm0 29h2v2h-2zm-29 14h2v2h-2zm0 30h2v2h-2zm29-15h2v2h-2zm0 29h2v2h-2zm-29 15h2v2h-2zm0 29h2v2h-2zm29-15h2v2h-2zm0 30h2v2h-2zm-29 14h2v2h-2zm0 30h2v2h-2zm29-15h2v2h-2zm0 29h2v2h-2zM176 67h2v2h-2zm29-14h2v2h-2zm0 29h2v2h-2zm-29 14h2v2h-2zm0 30h2v2h-2zm29-15h2v2h-2zm0 29h2v2h-2zm-29 15h2v2h-2zm0 29h2v2h-2zm29-15h2v2h-2zm0 30h2v2h-2zm-29 14h2v2h-2zm0 30h2v2h-2zm29-15h2v2h-2zm0 29h2v2h-2z"/><path id="l" d="M0 63h2v2H0zm29-14h2v2h-2zm0 29h2v2h-2zM0 92h2v2H0zm0 30h2v2H0zm29-15h2v2h-2zm0 29h2v2h-2zM0 151h2v2H0zm0 29h2v2H0zm29-15h2v2h-2zm0 30h2v2h-2zM0 209h2v2H0zm0 30h2v2H0zm29-15h2v2h-2zm0 29h2v2h-2zM2 63h2v2H2zm29-14h2v2h-2zm0 29h2v2h-2zM2 92h2v2H2zm0 30h2v2H2zm29-15h2v2h-2zm0 29h2v2h-2zM2 151h2v2H2zm0 29h2v2H2zm29-15h2v2h-2zm0 30h2v2h-2zM2 209h2v2H2zm0 30h2v2H2zm29-15h2v2h-2zm0 29h2v2h-2zM6 63h2v2H6zm29-14h2v2h-2zm0 29h2v2h-2zM6 92h2v2H6zm0 30h2v2H6zm29-15h2v2h-2zm0 29h2v2h-2zM6 151h2v2H6zm0 29h2v2H6zm29-15h2v2h-2zm0 30h2v2h-2zM6 209h2v2H6zm0 30h2v2H6zm29-15h2v2h-2zm0 29h2v2h-2z"/><radialGradient id="b" cx="19.4%" cy="-17%" r="174.2%" gradientTransform="matrix(.41763 .66003 -.90862 .30337 0 -.2)"><stop offset="0" stop-color="#fff" stop-opacity=".5"/><stop offset="1" stop-opacity=".5"/></radialGradient><mask id="d" fill="#fff"><use fill="none" xlink:href="#a"/></mask></defs><g fill="none" fill-rule="evenodd"><use fill="#34373c" xlink:href="#a"/><use fill="url(#b)" xlink:href="#a"/><use fill="#000" filter="url(#c)" xlink:href="#a"/><g mask="url(#d)"><g fill="#000" transform="translate(27 122)"><use filter="url(#e)" xlink:href="#f"/><use xlink:href="#f"/><use filter="url(#g)" xlink:href="#h"/><use xlink:href="#h"/><use filter="url(#i)" xlink:href="#j"/><use xlink:href="#j"/><use filter="url(#k)" xlink:href="#l"/><use xlink:href="#l"/></g></g></g></svg>